<svg width="24" height="20" viewBox="0 0 24 20" fill="none" xmlns="http://www.w3.org/2000/svg">
<path d="M2.24436 1.42424C2.16689 1.34676 2.10543 1.25479 2.06351 1.15357C2.02158 1.05235 2 0.94386 2 0.834298C2 0.724737 2.02158 0.616248 2.06351 0.515026C2.10543 0.413804 2.16689 0.321832 2.24436 0.24436C2.32183 0.166888 2.4138 0.105435 2.51503 0.0635072C2.61625 0.0215798 2.72474 -8.16298e-10 2.8343 0C2.94386 8.16297e-10 3.05235 0.0215798 3.15357 0.0635072C3.25479 0.105435 3.34676 0.166888 3.42424 0.24436L12 8.82179L20.5758 0.24436C20.6532 0.166888 20.7452 0.105435 20.8464 0.0635072C20.9477 0.0215798 21.0561 0 21.1657 0C21.2753 0 21.3838 0.0215798 21.485 0.0635072C21.5862 0.105435 21.6782 0.166888 21.7556 0.24436C21.8331 0.321832 21.8946 0.413804 21.9365 0.515026C21.9784 0.616248 22 0.724737 22 0.834298C22 0.94386 21.9784 1.05235 21.9365 1.15357C21.8946 1.25479 21.8331 1.34676 21.7556 1.42424L13.1782 10L21.7556 18.5758C21.8331 18.6532 21.8946 18.7452 21.9365 18.8464C21.9784 18.9477 22 19.0561 22 19.1657C22 19.2753 21.9784 19.3838 21.9365 19.485C21.8946 19.5862 21.8331 19.6782 21.7556 19.7556C21.6782 19.8331 21.5862 19.8946 21.485 19.9365C21.3838 19.9784 21.2753 20 21.1657 20C21.0561 20 20.9477 19.9784 20.8464 19.9365C20.7452 19.8946 20.6532 19.8331 20.5758 19.7556L12 11.1782L3.42424 19.7556C3.34676 19.8331 3.25479 19.8946 3.15357 19.9365C3.05235 19.9784 2.94386 20 2.8343 20C2.72474 20 2.61625 19.9784 2.51503 19.9365C2.4138 19.8946 2.32183 19.8331 2.24436 19.7556C2.16689 19.6782 2.10543 19.5862 2.06351 19.485C2.02158 19.3838 2 19.2753 2 19.1657C2 19.0561 2.02158 18.9477 2.06351 18.8464C2.10543 18.7452 2.16689 18.6532 2.24436 18.5758L10.8218 10L2.24436 1.42424Z" fill="black"/>
</svg>
