<svg width="22" height="22" viewBox="0 0 22 22" fill="none" xmlns="http://www.w3.org/2000/svg">
<path d="M21.4615 0.538473C21.6322 0.70873 21.7676 0.910989 21.86 1.13366C21.9524 1.35634 22 1.59506 22 1.83614C22 2.07723 21.9524 2.31595 21.86 2.53862C21.7676 2.7613 21.6322 2.96356 21.4615 3.13381L13.5912 11.0005L21.4615 18.8671C21.8057 19.2113 21.999 19.6781 21.999 20.1648C21.999 20.6515 21.8057 21.1183 21.4615 21.4625C21.1174 21.8067 20.6506 22 20.1639 22C19.6771 22 19.2103 21.8067 18.8662 21.4625L10.9995 13.5922L3.13285 21.4625C2.78869 21.8067 2.3219 22 1.83518 22C1.34846 22 0.881676 21.8067 0.537512 21.4625C0.193349 21.1183 1.25621e-08 20.6515 0 20.1648C-1.25621e-08 19.6781 0.193349 19.2113 0.537512 18.8671L8.40785 11.0005L0.537512 3.13381C0.3671 2.9634 0.231921 2.76109 0.139694 2.53844C0.0474677 2.31578 1.79559e-09 2.07714 0 1.83614C-1.79559e-09 1.59514 0.0474677 1.3565 0.139694 1.13385C0.231921 0.911194 0.3671 0.708885 0.537512 0.538473C0.707925 0.36806 0.910233 0.232881 1.13289 0.140655C1.35554 0.0484282 1.59418 0.000959627 1.83518 0.000959629C2.07618 0.000959631 2.31482 0.0484282 2.53748 0.140655C2.76013 0.232881 2.96244 0.36806 3.13285 0.538473L10.9995 8.40881L18.8662 0.538473C19.0364 0.367784 19.2387 0.232361 19.4614 0.139961C19.6841 0.0475606 19.9228 0 20.1639 0C20.4049 0 20.6437 0.0475606 20.8663 0.139961C21.089 0.232361 21.2913 0.367784 21.4615 0.538473Z" fill="black"/>
</svg>
