<svg width="43" height="26" viewBox="0 0 43 26" fill="none" xmlns="http://www.w3.org/2000/svg">
<g clip-path="url(#clip0_166_631)">
<path d="M41.2109 6.25096C41.2109 6.25096 42.3751 5.79944 42.2158 4.90828C41.9952 3.57748 40.9168 3.48242 40.4266 3.48242C39.2012 3.48242 38.515 3.86265 36.7381 3.86265C34.9613 3.86265 18.9205 3.88641 18.9205 3.88641C18.9205 3.88641 8.60248 3.58936 7.10746 3.63689C5.84528 3.73195 4.16646 3.6963 3.83559 4.87263C3.73756 5.43109 3.93363 6.27472 5.07327 6.6193C6.21291 6.96389 7.68341 6.66683 8.56572 7.70058C9.30097 8.41351 9.12941 9.63737 9.12941 9.63737C9.12941 9.63737 8.18584 16.9924 12.242 20.557C16.2981 24.1217 19.9254 24.7871 24.5697 24.3474C29.214 23.9078 31.3585 22.8265 34.3853 19.8916C37.3508 16.4934 37.2528 13.2733 37.2283 12.1445C37.2038 11.0157 36.7994 8.9482 37.2038 7.98575C37.9881 6.80942 38.9439 7.52235 41.2109 6.25096Z" fill="#C1B8A7"/>
<g opacity="0.8">
<path d="M39.2381 9.37573C39.2258 9.34008 39.189 9.31632 39.1523 9.30444C39.1155 9.30444 39.1033 9.3282 39.1033 9.35197C39.1033 9.36385 39.1033 9.36385 39.1033 9.37573V9.38761V9.42326C39.14 9.74408 39.1768 10.0887 39.2136 10.5164C39.2258 10.6234 39.2258 10.7303 39.2381 10.861L39.2503 11.1937L39.2626 11.4907C39.2626 11.5977 39.2626 11.7046 39.2626 11.8116C39.2626 12.2512 39.2381 12.7027 39.2013 13.1542C39.1278 13.8553 38.9807 14.5445 38.7724 15.2099C38.6744 15.5426 38.5518 15.8634 38.4293 16.1842C38.368 16.3387 38.2945 16.4931 38.221 16.6476C38.1474 16.8021 38.0862 16.9565 38.0004 17.0991C37.3754 18.2992 36.5789 19.3448 35.6843 20.2598L35.5128 20.4261L35.2922 20.6638C35.2554 20.7113 35.2064 20.7469 35.1574 20.7826L35.0226 20.8895L34.9613 20.9489L34.9123 20.9846L34.8265 21.0559L34.4834 21.3173C34.3609 21.4004 34.2506 21.4955 34.1281 21.5787C34.0055 21.6619 33.8952 21.7569 33.7727 21.8401C33.6501 21.9233 33.5276 22.0183 33.3928 22.1015C33.1477 22.2797 32.8781 22.4461 32.6208 22.6124C31.5547 23.3016 30.3047 23.9195 28.969 24.3829C27.6456 24.8106 26.3834 25.0483 25.1825 25.2027C24.582 25.274 24.0061 25.3334 23.4179 25.381C23.1238 25.4047 22.8297 25.4166 22.5356 25.4404C22.2415 25.4641 21.9351 25.4641 21.641 25.476C20.4156 25.4404 19.1289 25.3334 17.8055 25.0839C17.6462 25.0601 17.4746 25.0126 17.3153 24.977C17.156 24.9413 16.9844 24.9057 16.8129 24.8581C16.482 24.775 16.1511 24.6799 15.8203 24.5849C15.4894 24.466 15.1585 24.371 14.8399 24.2403C14.6806 24.1809 14.5213 24.1096 14.362 24.0502L14.1169 23.9551C14.0434 23.9195 13.9576 23.8838 13.8841 23.8482C12.6219 23.2659 11.4455 22.5411 10.3672 21.7331L9.96277 21.4242C9.82797 21.3173 9.70543 21.2103 9.57063 21.1034L9.1785 20.7826L9.08046 20.6994C9.0437 20.6756 9.00694 20.64 8.97018 20.6043L8.7496 20.4023C8.17365 19.8677 7.68349 19.2735 7.25459 18.6319C7.08303 18.3467 6.81344 17.7764 6.56835 17.3249C6.32327 16.8615 6.10269 16.505 5.89437 16.6714C5.44097 15.3049 5.2449 13.9622 5.17137 12.6552C5.13461 12.0017 5.13461 11.36 5.15912 10.7184C5.18363 10.0768 5.23265 9.44702 5.31842 8.79351L5.35519 8.54398L5.36744 8.47269C5.36744 8.46081 5.37969 8.41328 5.36744 8.44892C5.23264 8.43704 6.62962 8.59151 5.99241 8.52022L5.88212 8.54398L5.58802 8.50833L5.44097 8.49645C5.41646 8.49645 5.37969 8.49645 5.39195 8.49645V8.48457C5.4042 8.43704 5.4042 8.36575 5.4042 8.31822C5.4042 8.25881 5.39195 8.21128 5.39195 8.17563C5.39195 8.16375 5.39195 8.16375 5.39195 8.15187H5.35519L5.18363 8.16375L4.85276 8.1994L4.53415 8.21128L4.44838 8.22316H4.41161C4.39936 8.22316 4.3871 8.22316 4.37485 8.22316L4.31358 8.18752L4.08075 8.04493C3.99497 7.9974 3.9337 7.94987 3.86017 7.90235C3.78665 7.85482 3.71312 7.80729 3.65185 7.74788L3.46804 7.59341L3.38226 7.51024C3.35775 7.48647 3.33324 7.46271 3.30873 7.43894C3.2107 7.332 3.10041 7.23695 3.01463 7.14189L2.87984 6.98742L2.81857 6.90425L2.76955 6.83295C2.47545 6.46461 2.29164 6.21508 2.10782 6.0725C1.93626 5.92991 1.77696 5.8705 1.61765 5.83486C1.45835 5.79921 1.29905 5.77544 1.13974 5.75168C0.980436 5.71603 0.821131 5.66851 0.649573 5.57345C0.490268 5.47839 0.318709 5.32392 0.183913 5.09816C0.0858792 4.93181 0.0246082 4.71793 9.97623e-05 4.48029C-0.0244086 4.24265 9.97623e-05 3.99312 0.0368624 3.73172C0.196167 3.29208 0.453505 2.89997 0.784369 2.66233C1.11523 2.4128 1.4706 2.25833 1.85048 2.12763C2.23037 2.00881 2.61025 1.91375 3.02689 1.8187C3.44353 1.71176 3.87243 1.65235 4.31358 1.58105C4.42387 1.55729 4.54641 1.54541 4.66895 1.53352L5.03658 1.486L5.22039 1.46223L5.31842 1.45035H5.41646L5.82085 1.42658L6.23749 1.4147L6.44581 1.40282C6.51934 1.40282 6.59286 1.40282 6.66639 1.40282C6.96049 1.4147 7.24233 1.4147 7.53644 1.42658C8.11238 1.43847 8.70058 1.47411 9.27653 1.50976L10.0976 1.56917L10.502 1.59293L10.698 1.60482L10.8573 1.6167C12.4504 1.7474 14.0312 1.90187 15.612 1.91375C15.8325 1.87811 16.1879 1.80681 16.5188 1.7474C16.6903 1.72364 16.8619 1.68799 17.0089 1.67611C17.0457 1.67611 17.0825 1.66423 17.1192 1.66423C17.1437 1.66423 17.1682 1.66423 17.1927 1.65235C17.2418 1.65235 17.303 1.65235 17.3521 1.65235C21.7023 2.13951 25.7339 1.36717 29.8391 1.05824C31.4566 0.975064 32.6943 0.856243 34.2383 0.880007C34.3731 0.666128 34.753 0.701775 35.1819 0.630482C35.2187 0.630482 35.2554 0.630482 35.3045 0.630482C35.3412 0.630482 35.3902 0.630482 35.427 0.630482C35.5128 0.630482 35.6231 0.642364 35.7334 0.642364C35.9662 0.642364 36.2235 0.654246 36.5299 0.630482C36.8485 0.6186 37.2284 0.571071 37.7921 0.523543C38.0739 0.499779 38.3925 0.487896 38.7111 0.499779C38.7969 0.499779 38.8704 0.499779 38.9562 0.511661H39.0788L39.2258 0.523543C39.4219 0.535425 39.6424 0.559189 39.863 0.606718C40.3042 0.689893 40.8189 0.856242 41.2845 1.1533C41.7624 1.45035 42.1791 1.87811 42.4364 2.31774C42.4977 2.42468 42.5712 2.5435 42.608 2.65044C42.657 2.75738 42.706 2.86432 42.7428 2.97126C42.804 3.17326 42.8653 3.37525 42.8898 3.55349C42.9021 3.60101 42.9021 3.64854 42.9143 3.68419L42.9266 3.75548V3.79113V3.83866C42.9388 3.99312 42.9511 4.14759 42.9511 4.30206C42.9388 4.45653 42.9266 4.611 42.8898 4.76546C42.8531 4.90805 42.8163 5.05063 42.7673 5.18134C42.7183 5.31204 42.657 5.43086 42.5957 5.5378L42.5467 5.62098L42.4977 5.69227C42.4609 5.7398 42.4364 5.78733 42.3996 5.83486C42.3261 5.92991 42.2648 6.0012 42.2036 6.0725C42.1668 6.10814 42.1423 6.14379 42.1055 6.17944C42.0688 6.21508 42.0443 6.23885 42.0075 6.26261C41.7502 6.50025 41.5296 6.63096 41.3335 6.72602C41.1375 6.83295 40.9782 6.89236 40.8434 6.93989C40.7821 6.96366 40.7208 6.97554 40.6595 6.9993C40.635 7.01119 40.5983 7.01119 40.5738 7.02307C40.5615 7.02307 40.5493 7.02307 40.537 7.03495C40.5615 7.02307 40.5738 7.01119 40.586 6.9993H40.5738C40.5615 6.9993 40.5493 7.01119 40.537 7.01119H40.5248C40.5248 7.01119 40.537 7.01119 40.537 6.9993C40.5493 6.9993 40.5615 6.98742 40.5738 6.97554C40.5983 6.96366 40.6228 6.95178 40.6595 6.92801C40.7821 6.85672 40.9659 6.76166 41.1987 6.60719C41.26 6.57155 41.3213 6.52402 41.3825 6.46461C41.4193 6.44084 41.4438 6.41708 41.4806 6.38143C41.5173 6.34579 41.5541 6.32202 41.5909 6.28638C41.7379 6.15567 41.8972 5.98932 42.0565 5.76356C42.2158 5.52592 42.3874 5.24075 42.4732 4.86052C42.5222 4.68229 42.5344 4.46841 42.5467 4.2783C42.5467 4.18324 42.5344 4.0763 42.5222 3.98124C42.5222 3.93371 42.5099 3.8743 42.4977 3.83866L42.4732 3.7436C42.4242 3.50596 42.3384 3.24455 42.2036 2.97126C42.1668 2.89997 42.1301 2.82868 42.0933 2.75738C42.0565 2.68609 42.0075 2.6148 41.9585 2.5435C41.8727 2.40092 41.7379 2.27022 41.6154 2.13951C41.358 1.87811 41.0394 1.66423 40.7086 1.50976C40.3777 1.35529 40.0346 1.27212 39.7282 1.22459C39.5689 1.20082 39.4219 1.18894 39.2748 1.18894C39.2013 1.18894 39.1278 1.18894 39.0542 1.18894C38.9807 1.18894 38.9317 1.18894 38.8704 1.18894C38.6254 1.20082 38.3803 1.22459 38.1352 1.24835C37.8901 1.284 37.6695 1.31965 37.4612 1.35529C37.2651 1.39094 37.0691 1.42658 36.8853 1.46223C36.5299 1.53352 36.199 1.58105 35.8559 1.60482C35.6843 1.6167 35.5128 1.62858 35.3412 1.64046C35.1452 1.64046 34.9613 1.65235 34.7775 1.65235C34.03 1.67611 33.3193 1.69987 32.7188 1.72364C31.5179 1.77117 30.7459 1.83058 30.8072 1.88999C30.9542 1.96128 33.0987 1.9494 35.28 1.92563C35.7824 1.92563 36.248 1.87811 36.7259 1.80681C36.9588 1.77117 37.2039 1.72364 37.4489 1.68799C37.694 1.64046 37.9514 1.60482 38.221 1.56917C38.4783 1.54541 38.7356 1.52164 38.9562 1.52164C39.189 1.52164 39.4464 1.53352 39.667 1.56917C40.1204 1.64046 40.4635 1.79493 40.6105 1.87811C40.2184 1.71176 39.8263 1.64046 39.4831 1.62858C39.3116 1.6167 39.14 1.62858 39.0052 1.64046C38.8704 1.65235 38.7234 1.66423 38.5886 1.67611C38.319 1.71176 38.0617 1.75928 37.8166 1.8187C37.5837 1.87811 37.3632 1.92563 37.1548 1.98504C36.7505 2.09198 36.3706 2.17516 35.9907 2.23457C35.8069 2.27022 35.6108 2.2821 35.427 2.30586L35.28 2.31774L35.1329 2.32963C35.0349 2.34151 34.9368 2.34151 34.8388 2.35339C33.258 2.48409 31.8365 2.60292 30.5743 2.70985C28.0377 2.92373 26.1261 3.09008 24.7168 3.23267C21.9106 3.49408 21.1509 3.6129 21.6655 3.6129C22.6826 3.62478 28.7362 3.22079 33.4296 2.78115C33.7972 2.79303 34.2016 2.78115 34.6427 2.7455C34.8633 2.73362 35.0961 2.70985 35.3412 2.69797C35.5741 2.67421 35.8191 2.65044 36.0642 2.60292C36.3093 2.56727 36.5666 2.51974 36.8362 2.44845C37.1181 2.38904 37.3999 2.31774 37.694 2.24645C38.0004 2.17516 38.3558 2.11575 38.7234 2.0801C39.0788 2.05634 39.5199 2.04446 39.9978 2.18704C39.716 2.12763 39.3974 2.11575 39.091 2.15139C38.7969 2.18704 38.5028 2.24645 38.2087 2.32963C37.6082 2.49598 37.0568 2.7455 36.4931 2.91185C35.9294 3.09008 35.3657 3.19702 34.9123 3.26831C34.4467 3.35149 34.079 3.39902 33.883 3.4109C30.1454 3.75548 30.7214 4.05254 26.4447 4.02877C24.6923 4.01689 22.315 4.17136 19.9867 4.34959C19.4108 4.39712 18.8348 4.44465 18.2711 4.48029C17.9893 4.50406 17.7197 4.52782 17.4378 4.55158C17.3643 4.55158 17.303 4.56347 17.2295 4.56347C17.1682 4.56347 17.0947 4.57535 17.0089 4.57535C16.8741 4.58723 16.7393 4.58723 16.6045 4.59911C15.5629 4.64664 14.6316 4.69417 13.8841 4.70605C14.2762 4.62288 14.7909 4.51594 15.3914 4.409C15.6855 4.34959 16.0041 4.30206 16.335 4.24265C16.4943 4.21889 16.6658 4.18324 16.8374 4.15947L16.9599 4.13571L17.107 4.11195C17.1927 4.10006 17.2785 4.0763 17.3643 4.06442C18.7613 3.82678 20.244 3.63666 21.3837 3.68419C20.1338 3.57725 19.1657 3.58913 18.3201 3.66043C17.9035 3.69607 17.5114 3.7436 17.1315 3.81489C16.9232 3.83866 16.7516 3.86242 16.5678 3.89807C16.384 3.93371 16.2002 3.95748 16.0286 3.99312C15.3056 4.12383 14.5826 4.25453 13.7003 4.33771C13.2591 4.38524 12.7935 4.409 12.2666 4.43276C12.0092 4.44465 11.7274 4.44465 11.4333 4.44465C11.2862 4.44465 11.1392 4.44465 10.9799 4.43276C10.8328 4.43276 10.6858 4.42088 10.5265 4.42088C10.3672 4.42088 10.1956 4.43276 10.024 4.44465C9.97502 4.44465 9.93826 4.45653 9.88924 4.45653C9.85248 4.46841 9.81572 4.46841 9.7667 4.48029C9.69317 4.49217 9.6074 4.50406 9.53387 4.52782C9.19075 4.46841 8.85989 4.42088 8.39423 4.34959C8.08787 4.33771 7.78152 4.33771 7.49967 4.33771C7.20557 4.33771 6.93598 4.37335 6.66639 4.39712C6.40905 4.43276 6.15171 4.48029 5.91888 4.58723C5.80859 4.64664 5.6983 4.70605 5.62478 4.81299C5.55125 4.90805 5.50224 5.03875 5.48998 5.16946C5.48998 5.31204 5.539 5.46651 5.61252 5.59721C5.68605 5.72792 5.80859 5.83485 5.94339 5.91803C6.21298 6.08438 6.51934 6.13191 6.81344 6.16755C7.10754 6.2032 7.38938 6.21508 7.65898 6.28638C7.79377 6.32202 7.92857 6.36955 8.03886 6.45273C8.14915 6.52402 8.24718 6.63096 8.33296 6.74978C8.25943 6.67849 8.25943 6.61908 8.28394 6.55966C8.2962 6.5359 8.2962 6.51214 8.30845 6.48837C8.30845 6.46461 8.2962 6.44084 8.27169 6.42896C8.14915 6.32202 8.00209 6.29826 7.85504 6.27449C7.70799 6.25073 7.54869 6.23885 7.37713 6.21508C7.20557 6.17944 7.02176 6.12003 6.86245 5.98932C6.70315 5.85862 6.60512 5.66851 6.58061 5.47839C6.58061 5.38333 6.59286 5.30016 6.64188 5.22887C6.67864 5.15757 6.73991 5.09816 6.80118 5.05063C6.93598 4.95558 7.09528 4.90805 7.26684 4.8724C7.4384 4.83676 7.62221 4.82487 7.83054 4.80111C8.03886 4.78923 8.24718 4.80111 8.48001 4.81299C8.68833 4.84864 8.79862 4.77735 8.95792 4.69417C9.11723 4.611 9.31329 4.52782 9.52162 4.5397C9.6319 4.5397 9.72994 4.5397 9.84023 4.55158C9.95051 4.56347 10.0731 4.57535 10.1956 4.58723C10.2569 4.59911 10.3181 4.59911 10.3672 4.611C10.4284 4.62288 10.4897 4.62288 10.551 4.63476C10.7348 4.65852 10.9186 4.68229 11.1024 4.69417C11.8254 4.77735 12.5484 4.89617 13.2837 4.97934C12.5484 5.03875 11.7886 5.0744 10.9921 5.08628C10.8941 5.08628 10.7961 5.08628 10.698 5.08628H10.551H10.5142H10.4897H10.4529C10.3549 5.08628 10.2569 5.09816 10.1588 5.09816C9.99953 5.09816 9.82797 5.11004 9.66867 5.11004C9.36231 5.12193 9.06821 5.12193 8.76186 5.12193C8.61481 5.12193 8.46775 5.12193 8.3207 5.13381C8.17365 5.14569 8.03886 5.15757 7.91632 5.18134C7.83054 5.2051 7.83054 5.30016 7.91632 5.4071C7.98984 5.51404 8.12464 5.64474 8.24718 5.7398C8.3207 5.68039 8.41874 5.64474 8.51677 5.63286C8.61481 5.60909 8.71284 5.60909 8.79862 5.60909L9.06821 5.59721H9.32555C9.46035 5.58533 9.59514 5.56157 9.75445 5.52592C9.84023 5.50216 9.926 5.49027 10.0118 5.46651L10.0853 5.45463L10.1833 5.44274C10.2569 5.43086 10.3304 5.41898 10.4039 5.4071L10.5142 5.39522L10.7715 5.38333C10.9431 5.37145 11.1269 5.35957 11.2985 5.35957L12.3646 5.30016C13.0753 5.26451 13.7861 5.22887 14.4846 5.19322C15.1831 5.15757 15.8693 5.13381 16.531 5.12193C16.7026 5.12193 16.8864 5.11004 17.058 5.11004C17.2173 5.09816 17.3888 5.09816 17.5481 5.08628C17.8667 5.0744 18.1853 5.06252 18.4917 5.06252C19.7294 5.05063 20.8445 5.09816 21.7758 5.25263C21.8861 5.22887 21.9964 5.21698 22.217 5.18134C22.2782 5.2051 22.3518 5.21698 22.4375 5.22887C23.1605 5.21698 24.0183 5.25263 24.8026 5.39522L22.8052 5.34769C21.5062 5.5378 20.1583 5.65662 18.7735 5.72792C18.4304 5.75168 18.0873 5.76356 17.7319 5.77544C17.5604 5.78733 17.3888 5.78733 17.205 5.79921C17.107 5.79921 17.0457 5.81109 16.9109 5.79921H16.6413C15.9428 5.79921 15.2321 5.78733 14.5336 5.77544C13.8228 5.76356 13.1121 5.75168 12.4014 5.7398C12.046 5.72792 11.6906 5.72792 11.3352 5.71603L10.7961 5.70415H10.5265H10.4162H10.2324H10.1466H10.0853C10.0118 5.70415 9.93826 5.71603 9.87699 5.72792C9.74219 5.7398 9.6319 5.76356 9.54612 5.79921C9.52162 5.82297 9.46035 5.82297 9.36231 5.79921C9.26428 5.78733 9.12948 5.75168 8.97018 5.72792C8.82313 5.70415 8.65157 5.68039 8.52903 5.69227C8.40648 5.70415 8.3207 5.76356 8.35747 5.84674C8.36972 5.8705 8.36972 5.89427 8.38198 5.92991C8.43099 6.03685 8.52903 6.14379 8.63931 6.21508C8.7496 6.28638 8.85989 6.31014 8.95792 6.32202C9.15399 6.35767 9.32555 6.34579 9.46034 6.42896C9.49711 6.45273 9.52162 6.47649 9.54612 6.51214C9.57063 6.54778 9.58289 6.58343 9.59514 6.63096L9.6319 6.7379L9.68092 6.89236L9.72994 7.0706C9.75445 7.18942 9.77895 7.29636 9.80346 7.4033C9.81572 7.51024 9.84023 7.61717 9.85248 7.72411C9.87699 7.93799 9.88924 8.15187 9.87699 8.35387C9.87699 8.46081 9.86473 8.55586 9.86473 8.67468C9.86473 8.73409 9.85248 8.78162 9.85248 8.84103L9.95051 8.93609L9.926 9.06679V9.09056L9.91375 9.14997L9.88924 9.28067L9.85248 9.55396C9.82797 9.73219 9.80346 9.92231 9.77895 10.1124C9.72994 10.4927 9.70543 10.8729 9.68092 11.2412C9.61965 12.6433 9.74219 14.0454 10.1221 15.2811C10.3059 15.899 10.5755 16.4812 10.8941 17.0041C10.9309 17.0753 10.9799 17.1348 11.0289 17.1942C11.0779 17.2536 11.1147 17.3249 11.1637 17.3843C11.2617 17.5031 11.3475 17.6219 11.4578 17.7407L11.6171 17.9071L11.8254 18.0972L12.2298 18.4893C12.3646 18.62 12.5116 18.727 12.6587 18.8577C12.8057 18.9765 12.9405 19.1072 13.0876 19.2141L13.5287 19.5587C13.6758 19.6657 13.8351 19.7726 13.9821 19.8795C14.5949 20.2954 15.2321 20.6756 15.9061 20.9727C15.9918 21.0083 16.0776 21.0559 16.1634 21.0915L16.4207 21.1984L16.6781 21.3054L16.8129 21.3529L16.9477 21.4004L17.4868 21.5787L18.0383 21.7213C18.7735 21.8995 19.5456 22.0421 20.3298 22.1134C21.1141 22.1847 21.9106 22.2322 22.7194 22.2322C23.5282 22.2322 24.3369 22.2203 25.1457 22.1609C25.9422 22.1015 26.7388 21.9946 27.523 21.8044C28.3073 21.6262 29.0671 21.3529 29.8146 21.0083C30.5498 20.6638 31.2606 20.2479 31.9468 19.7845C32.2899 19.5587 32.6208 19.3211 32.9517 19.0715L33.209 18.8814C33.2948 18.8101 33.3683 18.727 33.4418 18.6557C33.5889 18.5131 33.7482 18.3705 33.8952 18.2279C34.4834 17.6338 35.0104 16.9803 35.476 16.2555C35.9417 15.5426 36.3216 14.7583 36.6034 13.9385C36.6402 13.784 36.6647 13.6177 36.6892 13.4632C36.7137 13.3087 36.7382 13.1424 36.7505 12.9879C36.6769 13.1186 36.6157 13.2493 36.5421 13.3681C36.6402 13.083 36.7259 12.7859 36.7995 12.5007C36.8362 12.0611 36.8485 11.6096 36.8362 11.2056C36.8362 10.7541 36.8117 10.3263 36.7995 9.93419L36.7872 9.63714C36.7872 9.56584 36.7872 9.49455 36.7872 9.42326C36.7872 9.28067 36.7995 9.14997 36.824 9.01927C36.8607 8.75786 36.9098 8.50833 37.0201 8.29446C37.0813 8.21128 37.1058 8.22316 37.1058 8.28257C37.1058 8.30634 37.1058 8.35387 37.1058 8.40139C37.1058 8.44892 37.0936 8.50833 37.0936 8.57963C37.0813 8.84103 37.1181 9.1975 37.2161 9.34008C37.2284 9.13809 37.2651 8.93609 37.2651 8.93609C37.2651 8.93609 37.3754 8.9955 37.4857 9.05491C37.4244 8.90044 37.5715 8.85292 37.645 8.80539C37.6328 9.00738 37.645 9.20938 37.6695 9.39949L37.7185 9.8629C37.743 10.0768 37.7676 10.3144 37.7798 10.5639C37.7921 10.6946 37.8043 10.8135 37.8043 10.9679C37.8166 11.1224 37.8166 11.2293 37.8166 11.3482C37.8166 11.5977 37.8166 11.8472 37.8043 12.1086C37.7921 12.6314 37.7308 13.1542 37.6328 13.6771C37.4489 14.7227 37.1058 15.7327 36.6402 16.6714C36.1745 17.6219 35.5863 18.4893 34.9246 19.2854C35.0594 19.2379 35.2064 19.1428 35.3535 19.0121C35.5005 18.8814 35.6598 18.727 35.7946 18.5487C35.9294 18.3705 36.0642 18.1804 36.1868 18.014C36.3093 17.8477 36.4073 17.6695 36.4931 17.5506C36.6647 17.2417 36.7995 16.909 36.9465 16.5882C37.0201 16.4218 37.0813 16.2555 37.1426 16.101L37.2406 15.8515C37.2651 15.7683 37.3019 15.6851 37.3264 15.602C37.3754 15.4356 37.4489 15.2693 37.4857 15.1029C37.5347 14.9366 37.5837 14.7702 37.6328 14.6157C37.7185 14.283 37.8166 13.9622 37.8901 13.6414C38.0372 12.7384 38.0984 11.8116 38.0984 10.9561C38.0984 10.457 38.0739 10.0768 38.0739 9.69655V9.55396V9.54208V9.5302V9.51832V9.49455L38.0862 9.39949C38.0984 9.34008 38.1107 9.28067 38.1229 9.22126C38.1597 9.11432 38.1965 9.00738 38.2455 8.92421C38.27 8.87668 38.3067 8.84103 38.3435 8.80539C38.3925 8.78162 38.4415 8.74598 38.4906 8.73409C38.6008 8.69845 38.7111 8.71033 38.8092 8.72221C38.8582 8.72221 38.9072 8.73409 38.944 8.73409H39.0052H39.0175H39.0297H39.042H39.0542L39.1033 8.72221L39.2013 8.69845C39.5812 8.62716 39.9611 8.54398 40.3164 8.44892C40.4022 8.42516 40.5002 8.4014 40.586 8.37763C40.6718 8.35387 40.7821 8.31822 40.8311 8.30634C40.9537 8.27069 41.0762 8.24693 41.1865 8.22316C41.358 8.1994 41.4071 8.22316 41.3825 8.29446C41.3703 8.3301 41.3335 8.37763 41.2845 8.42516C41.2355 8.47269 41.1865 8.5321 41.113 8.59151C41.0272 8.69845 40.6595 8.90044 40.3042 9.05491C40.1204 9.13809 39.9243 9.22126 39.716 9.28067C39.6179 9.31632 39.5077 9.34008 39.4096 9.37573C39.3606 9.38761 39.3116 9.39949 39.2626 9.41138C39.2626 9.38761 39.2626 9.37573 39.2381 9.37573ZM8.71284 14.4969C8.76186 14.9484 8.83538 15.4 8.92116 15.8396C9.01919 16.2792 9.14174 16.7308 9.30104 17.1704C9.46035 17.4556 9.6319 17.7407 9.82797 18.014C9.88924 18.0972 9.95051 18.1804 10.0118 18.2636C10.0853 18.3467 10.1588 18.418 10.2324 18.5012C10.3059 18.5844 10.3917 18.6557 10.4774 18.727C10.5632 18.7983 10.649 18.8696 10.747 18.9408C11.4088 19.6062 12.1073 20.2241 12.867 20.7826C13.6268 21.3529 14.4478 21.8401 15.3179 22.256C14.4846 21.7331 13.7126 21.139 12.9405 20.4855C12.7567 20.3192 12.5607 20.1409 12.3646 19.9746C12.1685 19.8082 11.9847 19.6181 11.7764 19.4399C11.5803 19.2617 11.3843 19.0715 11.1759 18.8814C11.0779 18.7864 10.9676 18.6913 10.8696 18.5963C10.7838 18.5012 10.6858 18.4061 10.6 18.3111L10.7838 18.4893C10.8451 18.5487 10.9063 18.6081 10.9799 18.6676C11.1147 18.7864 11.2617 18.9052 11.3965 19.024C11.6661 19.2735 11.9602 19.4755 12.242 19.7132C12.3768 19.832 12.5239 19.9271 12.6709 20.034C12.818 20.1409 12.9528 20.2479 13.0998 20.3548C13.2469 20.4499 13.3939 20.5568 13.541 20.6519C13.6145 20.6994 13.688 20.7588 13.7616 20.7945L13.9821 20.937C14.1292 21.0321 14.2762 21.1272 14.4356 21.2103C14.5949 21.2935 14.7419 21.3767 14.9012 21.4599C14.9747 21.5074 15.0483 21.543 15.134 21.5906L15.3669 21.7094C15.5262 21.7807 15.6855 21.8638 15.8448 21.9351C16.1634 22.0658 16.482 22.2203 16.8251 22.3273C16.9967 22.3867 17.156 22.458 17.3275 22.5055C17.4991 22.553 17.6707 22.6124 17.83 22.66C18.0015 22.7194 18.1731 22.755 18.3446 22.8025C18.5162 22.8501 18.6878 22.8976 18.8593 22.9332C19.2024 23.0045 19.5578 23.0877 19.9132 23.1352C20.6239 23.2659 21.3469 23.3253 22.0699 23.3966C22.7929 23.4442 23.5159 23.4798 24.2634 23.4798C24.9987 23.4798 25.7584 23.4442 26.5182 23.3491C27.4373 23.1828 28.3686 22.9332 29.2631 22.553C30.1577 22.1847 31.0155 21.6856 31.7998 21.1272C32.0816 20.937 32.3267 20.7232 32.5963 20.5093C32.8414 20.2954 33.0987 20.0815 33.3315 19.8677C33.4541 19.7488 33.5766 19.6419 33.6992 19.5231C33.7359 19.4874 33.7727 19.4518 33.8094 19.4161L33.9075 19.2973L34.079 19.0953C34.1893 18.9646 34.2874 18.8339 34.3977 18.7151C34.4957 18.5844 34.5937 18.4418 34.6918 18.3111C34.5202 18.5012 34.3486 18.7032 34.1648 18.8696L33.8952 19.1428L33.7359 19.2973C33.6869 19.3567 33.6134 19.3924 33.5644 19.4399L33.258 19.6657C33.16 19.7369 33.0619 19.8201 32.9639 19.8914C32.7678 20.034 32.5718 20.1766 32.3635 20.3192C31.5547 20.8776 30.6846 21.4004 29.7656 21.8044C28.8465 22.2084 27.8784 22.4936 26.9103 22.66C25.9422 22.8382 24.9742 22.8976 24.0183 22.9214C23.0625 22.9451 22.1067 22.9332 21.1509 22.8738C20.2073 22.8144 19.2637 22.6837 18.3692 22.4698C16.5555 22.0658 14.9012 21.3054 13.4675 20.2479C12.7445 19.7251 12.0705 19.1547 11.4333 18.525C11.3597 18.4537 11.274 18.3705 11.2004 18.2992L11.0044 18.0853C10.9431 18.014 10.8818 17.9309 10.8206 17.8596C10.7593 17.7764 10.698 17.717 10.649 17.6338C10.4162 17.3249 10.2324 16.9803 10.0608 16.6357C9.38682 15.2336 9.14174 13.5701 9.12948 11.9066C9.12948 11.0749 9.1785 10.2194 9.30104 9.41138C9.31329 9.31632 9.3378 9.20938 9.35006 9.11432C9.36231 9.06679 9.36231 9.01927 9.37457 8.98362L9.38682 8.92421L9.39907 8.82915C9.41133 8.76974 9.41133 8.71033 9.41133 8.6628C9.43584 8.25881 9.43584 7.8667 9.36231 7.43894C9.3378 7.332 9.32555 7.22506 9.28879 7.11812L9.23977 6.95178L9.21526 6.85672L9.19075 6.76166C9.19075 6.7379 9.1785 6.72601 9.16624 6.70225C9.14174 6.63096 9.08047 6.57155 9.0437 6.51214C8.94567 6.4052 8.81087 6.34579 8.68833 6.32202C8.56579 6.29826 8.44325 6.28638 8.33296 6.27449C8.22267 6.25073 8.11238 6.22697 8.0266 6.14379C7.95308 6.06062 7.92857 5.92991 7.97759 5.79921C8.01435 5.72792 8.06337 5.66851 8.13689 5.63286C8.01435 5.65662 7.90406 5.70415 7.81828 5.76356C7.7325 5.83486 7.67123 5.91803 7.64672 5.98932C7.62221 6.06062 7.63447 6.12003 7.67123 6.16755C7.7325 6.25073 7.85504 6.26261 8.0021 6.28638C8.14915 6.31014 8.33296 6.32202 8.49226 6.46461C8.57804 6.52402 8.63931 6.63096 8.71284 6.7379C8.73735 6.79731 8.76186 6.85672 8.78636 6.92801L8.82313 7.09436C8.85989 7.21318 8.8844 7.34389 8.90891 7.46271C8.95792 7.71223 8.97018 7.93799 8.97018 8.16375C8.97018 8.28257 8.97018 8.38951 8.95792 8.50833C8.94567 8.62716 8.93341 8.73409 8.92116 8.8648L8.90891 8.92421L8.89665 8.97174C8.89665 8.97174 8.89665 8.9955 8.8844 9.00738V9.05491L8.84763 9.24503C8.82313 9.37573 8.79862 9.50643 8.77411 9.63714C8.68833 10.16 8.62706 10.7065 8.5903 11.2412C8.52903 12.3106 8.55353 13.4038 8.71284 14.4969ZM8.07562 12.881C7.96533 11.9304 7.94082 10.9798 7.97759 10.0411C7.98984 9.80349 8.0021 9.56584 8.01435 9.34008C8.0266 9.22126 8.03886 9.11432 8.05111 8.9955L8.07562 8.82915L8.08787 8.76974L8.10013 8.69845C8.10013 8.65092 8.11238 8.61527 8.11238 8.57963C8.12464 8.25881 8.10013 7.96176 8.0266 7.64094C7.98984 7.48647 7.92857 7.29636 7.90406 7.22506C7.8673 7.13001 7.81828 7.05871 7.76927 6.97554C7.74476 6.92801 7.70799 6.89236 7.68349 6.85672L7.58545 6.74978C7.51193 6.67849 7.45066 6.60719 7.36488 6.54778C7.20557 6.42896 7.03401 6.3339 6.83795 6.27449C6.45807 6.15567 6.06593 6.13191 5.6738 6.08438C5.28166 6.03685 4.88953 5.97744 4.55866 5.76356C4.39936 5.65662 4.25231 5.51404 4.17878 5.33581C4.093 5.15757 4.0685 4.96746 4.08075 4.77735L4.093 4.71793C4.093 4.70605 4.10526 4.68229 4.11751 4.67041C4.12977 4.63476 4.14202 4.59911 4.15427 4.56347C4.19104 4.50406 4.2278 4.43276 4.27682 4.38524C4.32583 4.32582 4.37485 4.2783 4.43612 4.23077C4.49739 4.19512 4.55866 4.14759 4.61993 4.11195C4.87727 3.98124 5.15912 3.92183 5.41646 3.8743C5.68605 3.82678 5.95564 3.80301 6.21298 3.76736C6.47032 3.71984 6.72766 3.71984 6.985 3.69607C7.98984 3.6129 8.93341 3.49408 9.87699 3.30396C8.62706 3.35149 7.46291 3.38714 6.36003 3.44655C6.22524 3.45843 6.07818 3.45843 5.94339 3.48219L5.539 3.52972C5.26941 3.56537 4.99981 3.60101 4.74248 3.66043C4.48514 3.71984 4.2278 3.80301 3.99497 3.95748C3.94595 3.99312 3.88468 4.04065 3.83567 4.08818C3.78665 4.13571 3.74989 4.19512 3.70087 4.24265C3.67636 4.26641 3.66411 4.30206 3.65185 4.33771C3.6396 4.37335 3.61509 4.39712 3.61509 4.43276C3.60284 4.50406 3.56607 4.56347 3.57833 4.63476C3.57833 4.84864 3.62734 5.06252 3.73763 5.25263C3.84792 5.44274 4.00722 5.59721 4.20329 5.71603C4.59543 5.95368 5.04883 6.01309 5.47773 6.0725C5.91888 6.12003 6.34778 6.14379 6.76442 6.26261C6.97274 6.32202 7.16881 6.41708 7.32811 6.5359C7.36488 6.57155 7.41389 6.59531 7.45066 6.63096L7.56094 6.7379L7.67123 6.84484C7.70799 6.88048 7.7325 6.92801 7.76927 6.96366C7.74476 6.91613 7.70799 6.8686 7.67123 6.83295C7.63447 6.79731 7.59771 6.76166 7.56094 6.71413C7.52418 6.67849 7.48742 6.64284 7.46291 6.60719C7.42615 6.57155 7.38938 6.54778 7.35262 6.52402C7.20557 6.41708 7.07078 6.34579 6.94823 6.29826C6.70315 6.2032 6.53159 6.17944 6.43356 6.16755C6.33552 6.15567 6.32327 6.14379 6.38454 6.15567C6.44581 6.16755 6.56835 6.17944 6.76442 6.23885C6.94823 6.29826 7.20557 6.39332 7.45066 6.61908C7.56094 6.7379 7.69574 6.85672 7.78152 7.03495C7.80603 7.0706 7.81828 7.11812 7.84279 7.16565C7.8673 7.21318 7.87955 7.27259 7.90406 7.332C7.95308 7.51024 8.0021 7.68847 8.0266 7.8667C8.05111 8.04493 8.06337 8.23504 8.06337 8.42516C8.06337 8.52022 8.05111 8.61527 8.05111 8.72221C8.03886 8.80539 8.0266 8.87668 8.0266 8.95986C7.98984 9.25691 7.96533 9.57773 7.95308 9.91043C7.91632 10.5758 7.92857 11.3006 7.98984 12.0611C8.01435 12.1324 8.0266 12.2393 8.05111 12.3819C8.0266 12.5364 8.05111 12.7027 8.07562 12.881Z" fill="#686868"/>
<path d="M31.4078 19.7134L31.7754 19.4995L32.1431 19.2737C32.3881 19.1311 32.621 18.9648 32.8661 18.8103L33.0499 18.6915L33.2214 18.5489L33.5523 18.2637C33.6013 18.2162 33.6626 18.1687 33.7116 18.1212L33.8709 17.9667L34.1895 17.6577C35.0105 16.826 35.709 15.8517 36.2605 14.7585C36.1134 14.9486 35.9541 15.1269 35.8071 15.3051C35.6478 15.4714 35.5007 15.6378 35.3414 15.8041C35.1821 15.9586 35.0228 16.125 34.8512 16.3032C34.6674 16.4695 34.4959 16.6359 34.312 16.8141C34.067 17.0518 33.8341 17.3013 33.5645 17.5389L33.3807 17.7172C33.3195 17.7766 33.2582 17.836 33.1847 17.8954C33.0499 18.0142 32.9273 18.1212 32.7925 18.24C32.67 18.3588 32.5352 18.4301 32.3881 18.537C32.2411 18.644 32.094 18.7509 31.947 18.846C31.7999 18.9529 31.6529 19.048 31.5058 19.1549C31.3588 19.25 31.2117 19.345 31.0647 19.4519C30.4642 19.8322 29.8515 20.1886 29.2266 20.4738C28.6016 20.759 27.9521 20.961 27.3026 21.0917C26.3713 21.2699 25.4032 21.3531 24.4106 21.3769C24.1656 21.3769 23.9082 21.3887 23.6631 21.3887C23.4058 21.3887 23.1607 21.3887 22.9034 21.3887C22.401 21.3769 21.8985 21.365 21.4084 21.3293C20.428 21.2699 19.4722 21.1511 18.5654 20.9491C17.6586 20.7471 16.813 20.4619 16.0043 20.0817C15.1955 19.7015 14.4357 19.2381 13.7005 18.6915C13.5167 18.5608 13.3328 18.4182 13.149 18.2637L12.8794 18.038C12.7937 17.9667 12.6956 17.8954 12.6099 17.8122L12.0829 17.3369C12.0216 17.2775 11.9604 17.2062 11.8991 17.1468C11.8378 17.0874 11.7888 17.0161 11.7275 16.9567C10.833 15.9111 10.3061 14.307 10.1222 12.5365C10.1222 12.3583 10.0977 12.0731 10.0855 11.7642C10.061 11.4553 10.0365 11.1107 9.98745 10.8018C9.92618 11.9543 9.98745 13.095 10.1958 14.1525C10.4041 15.1981 10.7717 16.1487 11.3109 16.9092L11.4089 17.0518L11.5192 17.1825L11.6295 17.3132L11.7521 17.4439L11.8623 17.5746L12.0216 17.729L12.3525 18.038L12.5241 18.1924L12.6956 18.335L13.0387 18.6202C13.149 18.7153 13.2716 18.7984 13.3819 18.8935L13.7372 19.1668C14.6808 19.8559 15.6857 20.4025 16.764 20.8184C16.8988 20.8778 17.0336 20.9135 17.1807 20.961C17.3155 21.0085 17.4625 21.056 17.5973 21.0917L18.0262 21.2105L18.2345 21.2699L18.4551 21.3174L18.8963 21.4125C19.0433 21.4363 19.1904 21.46 19.3497 21.4838C19.6438 21.5432 19.9501 21.567 20.2687 21.6026C20.5751 21.6383 20.8937 21.662 21.2 21.6858C21.5187 21.6977 21.8373 21.7214 22.1559 21.7333C22.4745 21.7333 22.7931 21.7571 23.124 21.7452C23.4426 21.7452 23.7734 21.7452 24.092 21.7333C25.3787 21.6977 26.6409 21.5788 27.8663 21.2699C28.479 21.1154 29.0795 20.9016 29.68 20.6402C29.827 20.5689 29.9741 20.5095 30.1211 20.4382L30.5623 20.2124C30.8319 20.0461 31.126 19.8916 31.4078 19.7134Z" fill="#686868"/>
<path d="M10.4162 6.41718C10.3549 6.36965 10.3304 6.33401 10.3304 6.31024C10.3304 6.29836 10.3427 6.28648 10.3549 6.27459C10.3672 6.27459 10.3672 6.27459 10.3794 6.27459H10.4529C10.4284 6.26271 10.4162 6.25083 10.3917 6.22707C10.3794 6.21518 10.3672 6.2033 10.3549 6.19142C10.3304 6.16766 10.3059 6.14389 10.2814 6.12013C10.2324 6.08448 10.1711 6.04883 10.0976 6.02507C9.96278 5.97754 9.81573 5.95378 9.69319 5.94189C9.61966 5.95378 9.55839 5.96566 9.49712 6.00131C9.43585 6.02507 9.37458 6.0726 9.38683 6.15577C9.38683 6.21518 9.42359 6.26271 9.46036 6.29836C9.50937 6.334 9.55839 6.34589 9.60741 6.35777C9.64417 6.35777 9.68093 6.34589 9.7422 6.334C9.80347 6.32212 9.877 6.31024 9.96278 6.29836C10.0853 6.29836 10.1956 6.32212 10.2691 6.34589C10.3549 6.38153 10.3917 6.4053 10.4162 6.41718Z" fill="#686868"/>
<path d="M9.98726 10.8017C10.0118 10.4333 10.0363 10.065 10.0853 9.70851C10.1098 9.50651 10.1466 9.29263 10.1711 9.12628V9.10252V9.09064C10.1711 9.07875 10.1711 9.10252 10.1711 9.10252L10.1956 8.94805L10.2078 8.84111C10.2201 8.69853 10.2323 8.5797 10.2323 8.449C10.2446 8.19948 10.2323 7.94995 10.2078 7.70043C10.1833 7.43902 10.1343 7.17761 10.0608 6.89244L9.99951 6.67856L9.97501 6.60727L9.96275 6.58351C9.96275 6.57163 9.9505 6.55974 9.9505 6.55974V6.54786C9.9505 6.51221 9.92599 6.48845 9.91374 6.46469C9.84021 6.36963 9.72992 6.38151 9.60738 6.36963C9.57062 6.36963 9.54611 6.36963 9.55836 6.38151C9.55836 6.39339 9.59513 6.42904 9.60738 6.5241C9.60738 6.54786 9.61963 6.57163 9.61963 6.60727C9.61963 6.61915 9.61963 6.64292 9.61963 6.6548V6.66668V6.67856V6.69045L9.63189 6.76174V6.77362L9.64414 6.80927L9.66865 6.91621C9.68091 6.9875 9.70541 7.05879 9.71767 7.13008C9.74218 7.26079 9.76669 7.40337 9.77894 7.53408C9.8157 7.80737 9.8157 8.05689 9.8157 8.30642C9.8157 8.43712 9.80345 8.55594 9.79119 8.68664C9.77894 8.74605 9.77894 8.81735 9.76668 8.90052L9.74218 9.05499C9.74218 9.03123 9.74218 9.05499 9.74218 9.06687C9.71767 9.15005 9.69316 9.26887 9.66865 9.37581C9.61963 9.60157 9.58287 9.83921 9.55836 10.0769C9.8157 10.065 9.92599 10.3858 9.98726 10.8017Z" fill="#686868"/>
</g>
</g>
<defs>
<clipPath id="clip0_166_631">
<rect width="43" height="25" fill="white" transform="translate(0 0.5)"/>
</clipPath>
</defs>
</svg>
